<?xml version="1.0" ?><svg width="750px" height="750px" viewBox="0 0 750 750" id="Layer_1" xmlns="http://www.w3.org/2000/svg"><path d="M296.57,250.93c.13,45.27-15.64,43.49-54.64,39.34-10.65-1.5-15.57,11.17-11.24,19.53,3.8,7.79,14.16,7.09,21.54,8.39,52.73,8.15,63.2-24.24,63.47-69.59-.51-18.36-20.83-14.83-19.13,2.33Z"/><path d="M626.11,578.81c-11.27-7.01-22.54-14.03-33.8-21.06-22.44-16.06-43.73-33.69-67.04-48.49-19.8-12.97-40.51-24.5-60.88-36.52-2.44-1.16-4.81-2.52-7.5-3-2.32-.27-4.28,.27-5.88,1.33-8.56-9-17.07-18.05-25.56-27.11-18.38-20.44-38.49-39.29-56.33-60.05,.11-.38,.21-.77,.29-1.18,2.51-12.63,1.66-25.72,2.36-38.55,.86-24.53,4.94-48.78,6.15-73.29,2.8-56.96,6.89-113.76,20.26-169.36,3.92-15.06-14.46-25.12-19.24-7.63-11.61,46.15-8.54,93.93-14.06,140.85-4.41,41.79-13.17,83.45-14.2,125.51-3.27-4.73-6.39-9.59-9.29-14.63-1.93-2.46-3.72-5.6-5.9-8.2,12.44-22.25,17.82-50.87,18.04-77.08-.44-83.97-92.85-102.61-158.81-79.95-6.16-7.48-15.38,.57-21.31,4.52-31.55,22.94-31.93,74.69-26.9,109.87,13.98,44.05,68.28,74.4,112.4,80.45,11.09,1.72,21.04,1.4,29.93-.58-7.25,1.94-14.43,3.97-21.45,5.62-33.16,8.83-66.03,18.71-99.65,25.63-14.55,3.62-28.68,7.59-43.12,11.81-6.49,2.81-6.74,13.76-.95,17.47,3.72,2.12,7.73-.66,11.49-1.4,9.91-2.85,19.87-5.49,29.84-8.16,25.4-6.4,51.53-9.13,77.15-14.35,35.34-6.99,70.28-20.2,106.75-15.1,.23-.02,.45-.06,.67-.1,30.77,36.56,69.68,66.45,102.45,101.26,.78,2.09,1.75,4.11,2.76,5.97,14.64,34.35,30.57,68.12,46.39,101.94,9.09,18.35,18.04,36.77,27.02,55.18,1.13,2.31,3.15,4.36,5.74,4.86,8.5,1.11,11.58-10.58,8.2-16.76-3.6-7.38-7.19-14.76-10.78-22.14-10.41-26.73-22.66-52.64-34.19-78.88-5.46-11.2-9.77-23.03-14.51-34.62,10.4,5.8,20.95,11.37,31.26,17.31,34.55,23.32,70.45,44.51,105.85,66.53,3.99,2.58,8.52-.66,9.95-4.78,1.57-4.4,.58-10.48-3.64-13.1ZM252.05,346.83c-34.78,2.22-69.31-17.76-84.23-49.34-7.34-17.42-4.62-36.83-2.27-55.02,3.51-28.73,15.81-28.44,31.21-46.45,22.4-5.61,45.78-12.1,68.42-3.96,28.22,8.87,53.49,32,63.87,59.8,13.85,55.51-18.52,99.07-77,94.98Zm41.73,26.52c10.98-3.34,20.23-9.35,27.92-17.2,2.23,4.01,4.57,7.94,7.02,11.77-11.63,.02-23.37,2.46-34.94,5.43Z"/></svg>