<svg xmlns="http://www.w3.org/2000/svg" width="26.423" height="26.698" viewBox="177 0 26.423 26.698"><path d="M183.731 24.992a13.026 13.026 0 0 0 6.072 1.7c.129.004.257.006.386.006a13.177 13.177 0 0 0 9.37-3.905 13.46 13.46 0 0 0 .41-.435c2.76-3.048 3.866-7.086 3.318-10.927a13.338 13.338 0 0 0-3.729-7.526A13.13 13.13 0 0 0 187.374.31a13.102 13.102 0 0 0-6.509 3.596 13.46 13.46 0 0 0-.411.435c-2.76 3.048-3.865 7.086-3.318 10.927a13.338 13.338 0 0 0 3.73 7.526.79.79 0 0 0 .05.047.772.772 0 0 0 .675.162.77.77 0 0 0 .374-.21.79.79 0 0 0 .217-.682.785.785 0 0 0-.217-.429c-2.7-2.728-3.797-6.472-3.29-10.025a11.768 11.768 0 0 1 3.29-6.64 11.815 11.815 0 0 1 .685-.64 11.584 11.584 0 0 1 10.066-2.533 11.559 11.559 0 0 1 5.742 3.174 11.875 11.875 0 0 1 .363.383c4.181 4.618 4.06 11.812-.363 16.281a11.624 11.624 0 0 1-8.267 3.447c-.112 0-.225-.002-.338-.005a11.499 11.499 0 0 1-5.359-1.5.789.789 0 0 0-.029-.015.773.773 0 0 0-1.03.315.803.803 0 0 0-.01.02.789.789 0 0 0-.084.457.784.784 0 0 0 .39.592Zm5.703-5.486a.782.782 0 0 0 .778.785c.429 0 .777-.352.777-.785V14.39h5.062a.782.782 0 0 0 .778-.786.782.782 0 0 0-.778-.785h-5.062V7.705a.782.782 0 0 0-.777-.785.782.782 0 0 0-.778.785v5.115h-5.062a.782.782 0 0 0-.777.785.782.782 0 0 0 .777.786h5.062v5.115Z" fill="rgba(194, 194, 194, 1)" fill-rule="evenodd" data-name="Add"/></svg>