<svg xmlns="http://www.w3.org/2000/svg" width="77.003" height="76.996" viewBox="25 21 77.003 76.996"><g data-name="Clock" transform="translate(25 21)" clip-path="url(&quot;#a&quot;)"><path d="M77.003 38.499A38.51 38.51 0 0 0 38.502 0C17.245 0 0 17.245 0 38.499a38.51 38.51 0 0 0 38.502 38.497A38.51 38.51 0 0 0 77.003 38.5Zm-38.69 31.296a31.296 31.296 0 0 0 31.219-31.307 31.295 31.295 0 0 0-31.22-31.305 31.295 31.295 0 0 0-31.22 31.305 31.296 31.296 0 0 0 31.22 31.307Zm4.848-50.214a1.68 1.68 0 0 0-1.7-1.703h-3.85c-.955 0-1.699.745-1.699 1.703v18.73H23.19a1.689 1.689 0 0 0-1.27.559 1.704 1.704 0 0 0-.43 1.144v4.008a1.696 1.696 0 0 0 .536 1.252 1.695 1.695 0 0 0 1.164.45h18.273c.956 0 1.7-.745 1.7-1.702v-24.44Z" fill="rgba(255, 255, 255, 1)" fill-rule="evenodd"/></g><defs><clipPath id="a"><path d="M2 2h132v122H2V2Z" data-name="Rectangle 24 copy" transform="translate(-29 -21)"/></clipPath></defs></svg>