<svg xmlns="http://www.w3.org/2000/svg" width="17.326" height="13.028" viewBox="168 16 17.326 13.028"><path d="M180.627 18.98a4.574 4.574 0 0 0-.74-1.443c-.669-.856-1.617-1.307-2.769-1.468a7.716 7.716 0 0 0-1.063-.069 5.57 5.57 0 0 0-3.725 1.376 4.984 4.984 0 0 0-1.675 3.768.47.47 0 0 0 .002.033.705.705 0 0 1 .001.022A3.181 3.181 0 0 0 168 24.366a3.193 3.193 0 0 0 3.143 3.221 3.318 3.318 0 0 0 .052 0h1.868l-1.012-1.44h-.856a1.751 1.751 0 0 1-1.751-1.661 1.883 1.883 0 0 1-.004-.12 1.737 1.737 0 0 1 1.394-1.736 1.841 1.841 0 0 1 .061-.011l1.25-.118-.048-1.358-.002-.029a3.654 3.654 0 0 1 2.87-3.54 4.46 4.46 0 0 1 1.09-.134 5.933 5.933 0 0 1 1.177.101c.786.16 1.38.534 1.772 1.273a3.654 3.654 0 0 1 .251.605l.314.98 1.028.022c1.264.025 2.695.922 3.132 2.126a2.174 2.174 0 0 1 .134.745c0 2.534-2.367 2.834-2.559 2.855a.647.647 0 0 1-.012 0l-1.164 1.44h1.643v-.037a3.985 3.985 0 0 0 3.455-3.264 4.922 4.922 0 0 0 .1-.994c0-2.342-2.355-4.263-4.7-4.311Zm-3.255 7.7.428-.473 1.156-1.274a.51.51 0 0 1 .21-.133.497.497 0 0 1 .463.083.528.528 0 0 1 .054.05l.182.055a.55.55 0 0 1 .15.38.55.55 0 0 1-.15.381l-2.665 2.92a.034.034 0 0 0-.002.003l-.006.008-.183.191a.497.497 0 0 1-.365.157.5.5 0 0 1-.366-.157l-.182-.19a.017.017 0 0 1-.003-.004l-.004-.007a.014.014 0 0 0 0-.002l-2.6-2.874a.549.549 0 0 1-.15-.381.55.55 0 0 1 .15-.38l.182-.055a.509.509 0 0 1 .212-.134.498.498 0 0 1 .462.084.527.527 0 0 1 .054.05l1.533 1.709v-4.87a.72.72 0 0 1 .72-.72.72.72 0 0 1 .72.72v4.862Z" fill="rgba(248, 101, 35, 1)" fill-rule="evenodd" data-name="Download icon"/></svg>