<svg xmlns="http://www.w3.org/2000/svg" width="21.03" height="21.035" viewBox="147 0 21.03 21.035"><path d="M157.9 12.023c-.578-.432-1.834-1.317-1.834-1.91a2.23 2.23 0 0 1 .024-.356c.077-.475.358-.821 1.178-1.465a17.271 17.271 0 0 1 .05-.04 4.854 4.854 0 0 0 1.587-1.995 3.558 3.558 0 0 0 .252-1.322 4.73 4.73 0 0 0-.443-2.055 3.295 3.295 0 0 0-1.324-1.455h1.636L160.418 0h-6.231a6.405 6.405 0 0 0-3.617 1.108c-1.323.91-2.18 2.282-2.18 3.74 0 2.227 1.26 4.07 3.477 4.563a5.649 5.649 0 0 0 1.228.13 9.156 9.156 0 0 0 .592-.024 172.854 172.854 0 0 0 .012-.001 2.618 2.618 0 0 0-.33 1.211 1.661 1.661 0 0 0 .075.507c.138.437.453.756.82 1.11a27.837 27.837 0 0 0-.31.003c-.262.002-.524.008-.802.008a22.434 22.434 0 0 1-.018 0 11.608 11.608 0 0 0-2.556.25c-1.846.42-3.118 1.414-3.476 3.285a6.153 6.153 0 0 0-.102 1.154 3.14 3.14 0 0 0 1.375 2.478c1.226.945 3.152 1.513 5.28 1.513a9.907 9.907 0 0 0 2.654-.342c2.521-.701 4.011-2.398 4.011-4.285a3.588 3.588 0 0 0 0-.054c-.028-1.852-.397-2.798-2.332-4.265a17.236 17.236 0 0 0-.087-.066Zm10.13-8.027h-2.998V7.01h-.996V3.996h-2.994V3.01h2.994V.002h.996V3.01h2.998v.987Zm-16.297 15.188a5.371 5.371 0 0 0 1.85.313 11.497 11.497 0 0 0 .707-.021c2.767-.17 3.753-1.368 3.753-2.901 0-.2-.005-.402-.075-.584-.703-1.75-2.782-1.959-3.852-1.984a15.51 15.51 0 0 0-.374-.003c-1.17 0-2.238.223-3.005.655a2.085 2.085 0 0 0-1.204 1.832c0 1.177.859 2.2 2.2 2.693Zm-.817-14.204c-.277-2.076 1.12-3.523 2.714-3.477a2.585 2.585 0 0 1 2.119 1.332c.398.628.666 1.441.786 2.353a5.664 5.664 0 0 1 .041.437c.096 1.785-.764 2.875-2.193 2.875a2.867 2.867 0 0 1-.083-.002c-1.595-.049-3.11-1.44-3.384-3.518Z" fill="rgba(255, 255, 255, 1)" fill-rule="evenodd" data-name="G+ Icon"/></svg>