<svg xmlns="http://www.w3.org/2000/svg" width="42.9" height="37.538"><path d="M37.537 0H5.363A5.363 5.363 0 0 0 0 5.363v21.45a5.363 5.363 0 0 0 5.363 5.362h32.174a5.363 5.363 0 0 0 5.363-5.363V5.362A5.363 5.363 0 0 0 37.537 0ZM5.363 2.681h32.174a2.685 2.685 0 0 1 2.682 2.682V20.11H2.68V5.363A2.686 2.686 0 0 1 5.363 2.68Zm32.174 26.813H5.363a2.685 2.685 0 0 1-2.682-2.682V21.45H40.22v5.363a2.683 2.683 0 0 1-2.682 2.682Zm-6.703 5.362H12.066a1.34 1.34 0 0 0-1.341 1.34 1.34 1.34 0 0 0 1.34 1.341h18.77a1.34 1.34 0 0 0 1.34-1.34 1.34 1.34 0 0 0-1.34-1.34Z" fill="rgba(255, 255, 255, 1)" fill-rule="evenodd" data-name="Icon Computer"/></svg>