<svg xmlns="http://www.w3.org/2000/svg" width="49.872" height="41.933" viewBox="158.017 190.055 49.872 41.933"><path d="M182.956 231.989c-.36 0-.721-.133-1.003-.4l-4.894-4.625a1.486 1.486 0 0 1-.066-2.09 1.458 1.458 0 0 1 2.073-.067l3.895 3.68 19.025-17.81c3.973-4.005 3.973-10.584-.039-14.627a10.182 10.182 0 0 0-7.276-3.038 10.184 10.184 0 0 0-7.276 3.038 10.407 10.407 0 0 0-2.97 6.362 1.483 1.483 0 0 1-.43 1.033c-.305.307-.73.468-1.158.427a1.48 1.48 0 0 1-1.35-1.46 10.41 10.41 0 0 0-2.97-6.362 10.184 10.184 0 0 0-7.276-3.038 10.185 10.185 0 0 0-7.276 3.038 10.344 10.344 0 0 0-3.014 7.332c0 2.77 1.07 5.375 3.014 7.334l10.209 9.556c.594.555.628 1.49.076 2.089-.551.599-1.479.632-2.073.077l-10.248-9.594c-2.536-2.555-3.912-5.902-3.912-9.462 0-3.56 1.376-6.906 3.873-9.423a13.087 13.087 0 0 1 9.351-3.904c3.533 0 6.854 1.387 9.351 3.904.953.96 1.748 2.055 2.364 3.241a13.339 13.339 0 0 1 2.363-3.241 13.088 13.088 0 0 1 9.352-3.904c3.533 0 6.853 1.387 9.351 3.904 5.156 5.196 5.156 13.65 0 18.847l-20.067 18.787c-.282.264-.64.396-.999.396Z" fill="rgba(255, 255, 255, 1)" fill-rule="evenodd" data-name="Like"/></svg>