<svg xmlns="http://www.w3.org/2000/svg" width="24" height="18" viewBox="216 1 24 18"><path d="M236 1h-16a4 4 0 0 0-4 4v10a4 4 0 0 0 4 4h16a4 4 0 0 0 4-4V5.02a.997.997 0 0 0 0-.02 1.002 1.002 0 0 0 0-.022A4 4 0 0 0 236 1Zm2 5.963V15a2.003 2.003 0 0 1-2 2h-16c-1.102 0-2-.897-2-2V6.963l9.412 6.846a.994.994 0 0 0 .568.191 1 1 0 0 0 .02 0 1.002 1.002 0 0 0 .016 0 .994.994 0 0 0 .572-.191L238 6.963Zm-.056-2.431A2.003 2.003 0 0 0 236 3h-16a2.003 2.003 0 0 0-1.944 1.532L228 11.764l5.206-3.786 4.738-3.446Z" fill="rgba(255, 255, 255, 1)" fill-rule="evenodd" data-name="Mail Icon"/></svg>