<svg xmlns="http://www.w3.org/2000/svg" width="19.995" height="22" viewBox="81 7 19.995 22"><path d="M96.104 29a.676.676 0 0 1-.394-.127l-3.452-2.482c-.417.051-.834.076-1.25.076a10.176 10.176 0 0 1-7.084-2.849 9.62 9.62 0 0 1-2.594-4.395 9.558 9.558 0 0 1 1.888-8.613 9.9 9.9 0 0 1 .706-.762 10.085 10.085 0 0 1 6.56-2.835c2.686-.133 5.418.782 7.485 2.745a10.027 10.027 0 0 1 .094.09 9.543 9.543 0 0 1 2.932 6.86c0 .461-.034.926-.102 1.39a9.759 9.759 0 0 1-.166.862.652.652 0 0 1-.023.092 9.139 9.139 0 0 1-.206.707 9.613 9.613 0 0 1-.234.624l-1.556 3.606a.665.665 0 0 1-.613.397.678.678 0 0 1-.08-.005.68.68 0 0 1-.177-.046.656.656 0 0 1-.33-.293.63.63 0 0 1-.025-.554l1.553-3.598a8.324 8.324 0 0 0 .381-1.161.416.416 0 0 1 .005-.022c.709-2.882-.15-5.852-2.299-7.944a8.744 8.744 0 0 0-5.661-2.457c-2.339-.122-4.72.671-6.52 2.38a8.693 8.693 0 0 0-.079.077 8.294 8.294 0 0 0-.611 11.28 8.584 8.584 0 0 0 .611.66 8.823 8.823 0 0 0 6.143 2.47c.441 0 .885-.033 1.327-.1a.66.66 0 0 1 .061-.006c.155-.01.31.035.435.126l2.99 2.15.657-1.522a.665.665 0 0 1 .613-.397c.027 0 .054.002.08.005a.68.68 0 0 1 .177.046.655.655 0 0 1 .331.296.633.633 0 0 1 .072.379.634.634 0 0 1-.047.172l-.985 2.282a.66.66 0 0 1-.436.373.682.682 0 0 1-.167.023.681.681 0 0 1-.01 0Zm-.9-14.269H87.2a.525.525 0 0 1-.531-.518c0-.286.238-.517.531-.517h8.004a.525.525 0 0 1 .532.517.525.525 0 0 1-.532.518Zm0 2.968H87.2a.525.525 0 0 1-.531-.517.525.525 0 0 1 .531-.518h8.004c.294 0 .532.232.532.518a.525.525 0 0 1-.532.517Zm-3.428 2.969H87.2a.525.525 0 0 1-.531-.518.525.525 0 0 1 .531-.518h4.576c.294 0 .532.232.532.518a.525.525 0 0 1-.532.518Z" fill="rgba(248, 102, 35, 1)" fill-rule="evenodd" data-name="message"/></svg>