<svg xmlns="http://www.w3.org/2000/svg" width="16.012" height="24" viewBox="2 0 16.012 24"><path d="M17.29 20.886h-3.446A3.871 3.871 0 0 1 10.006 24a3.871 3.871 0 0 1-3.837-3.114H2.723A.714.714 0 0 1 2 20.18v-9.175a7.923 7.923 0 0 1 5.609-7.474v-1.19c0-1.29 1.075-2.34 2.397-2.34a2.372 2.372 0 0 1 2.397 2.34v1.19a7.923 7.923 0 0 1 5.61 7.474v9.175a.714.714 0 0 1-.724.706ZM3.445 19.474H6.8a.714.714 0 0 1 .017 0 .714.714 0 0 1 .017 0h6.344a.714.714 0 0 1 .017 0 .714.714 0 0 1 .017 0h3.355v-8.469a6.492 6.492 0 0 0-6.56-6.407c-3.618 0-6.561 2.875-6.561 6.407v8.47Zm1.457-7.284a.572.572 0 0 0 .578.565.572.572 0 0 0 .578-.565v-1.694a2.988 2.988 0 0 1 3.02-2.948.572.572 0 0 0 .578-.565.572.572 0 0 0-.579-.565c-2.302 0-4.175 1.83-4.175 4.078v1.694Zm7.455 8.696H7.654a2.44 2.44 0 0 0 2.352 1.702 2.44 2.44 0 0 0 2.352-1.702Zm-2.352-17.7a7.923 7.923 0 0 0-.951.048V2.34c0-.512.427-.929.951-.929.525 0 .952.417.952.93v.892a7.923 7.923 0 0 0-.952-.047Z" fill="rgba(255, 255, 255, 1)" fill-rule="evenodd" data-name="Notification"/></svg>