<svg xmlns="http://www.w3.org/2000/svg" width="16" height="16" viewBox="31 0 16 16"><path d="M42.62 16h-8.796A2.827 2.827 0 0 1 31 13.176V4.38a2.827 2.827 0 0 1 2.824-2.823h5.647a.47.47 0 0 1 .47.47.47.47 0 0 1-.47.47h-5.647A1.884 1.884 0 0 0 31.94 4.38v8.796a1.884 1.884 0 0 0 1.883 1.883h8.796a1.884 1.884 0 0 0 1.882-1.883V7.321a.47.47 0 0 1 .47-.47c.26 0 .471.21.471.47v5.855A2.827 2.827 0 0 1 42.62 16Zm3.439-11.523a.47.47 0 0 0 .47.471.47.47 0 0 0 .471-.47V.47a.47.47 0 0 0-.47-.47h-4.007a.47.47 0 0 0 0 .941h2.865l-3.032 3.004-3.58 3.547a.47.47 0 0 0-.13.425.469.469 0 0 0 .127.24.475.475 0 0 0 .026.025.469.469 0 0 0 .304.114.478.478 0 0 0 .004 0 .467.467 0 0 0 .003 0 .469.469 0 0 0 .328-.136l3.58-3.547 3.04-3.011v2.875Z" fill="rgba(154, 154, 154, 1)" fill-rule="evenodd" data-name="Out"/></svg>