<svg xmlns="http://www.w3.org/2000/svg" width="20" height="14.005" viewBox="0 146 20 14.005"><path d="M19.412 160.005H.588a.594.594 0 0 1-.463-.218.557.557 0 0 1-.125-.352v-10.083a.58.58 0 0 1 .58-.57.621.621 0 0 1 .008 0h5.418v-2.212a.58.58 0 0 1 .58-.57.617.617 0 0 1 .008 0h6.812a.594.594 0 0 1 .465.221.557.557 0 0 1 .123.35.58.58 0 0 1-.58.57.617.617 0 0 1-.008 0H7.182v2.211a.58.58 0 0 1-.588.57H1.176v8.942h17.648v-8.942h-5.418a.594.594 0 0 1-.463-.218.557.557 0 0 1-.125-.352.58.58 0 0 1 .58-.57.621.621 0 0 1 .008 0h6.006a.594.594 0 0 1 .465.22.557.557 0 0 1 .123.35v10.083a.58.58 0 0 1-.58.57.62.62 0 0 1-.008 0Zm-12.023-4.167a3.275 3.275 0 0 0 2.611 1.28 3.397 3.397 0 0 0 .042 0 3.198 3.198 0 0 0 3.202-3.146c0-1.735-1.455-3.146-3.244-3.146a3.397 3.397 0 0 0-.042 0 3.199 3.199 0 0 0-3.202 3.146 3.067 3.067 0 0 0 .633 1.866Zm2.611-4.1a2.325 2.325 0 0 0-1.857.914 2.177 2.177 0 0 0-.446 1.32 2.27 2.27 0 0 0 2.273 2.233 2.413 2.413 0 0 0 .03 0 2.325 2.325 0 0 0 1.853-.909 2.177 2.177 0 0 0 .45-1.324 2.27 2.27 0 0 0-2.273-2.234 2.412 2.412 0 0 0-.03 0Z" fill="rgba(255, 255, 255, 1)" fill-rule="evenodd" data-name="Photo"/></svg>