<svg xmlns="http://www.w3.org/2000/svg" width="20" height="20.001" viewBox="74 0 20 20.001"><path d="M77.747 3.35h-3.159a.594.594 0 0 1-.588-.6.594.594 0 0 1 .588-.601h3.16A2.725 2.725 0 0 1 80.38 0c1.486 0 2.694 1.233 2.694 2.75a2.725 2.725 0 0 1-2.694 2.748 2.725 2.725 0 0 1-2.633-2.149Zm10.531 9.4c-1.486 0-2.694-1.234-2.694-2.75 0-1.515 1.208-2.748 2.694-2.748a2.725 2.725 0 0 1 2.633 2.149h2.5a.594.594 0 0 1 .59.6.594.594 0 0 1-.59.6h-2.5a2.725 2.725 0 0 1-2.633 2.148ZM77.09 17.851a2.725 2.725 0 0 0 2.633 2.15 2.725 2.725 0 0 0 2.694-2.75c0-1.515-1.208-2.748-2.694-2.748a2.725 2.725 0 0 0-2.633 2.148h-2.5a.594.594 0 0 0-.589.6.594.594 0 0 0 .588.6h2.501Zm16.323 0h-9.45a.594.594 0 0 1-.588-.6.594.594 0 0 1 .588-.6h9.45a.594.594 0 0 1 .588.6c0 .332-.263.6-.588.6Zm-9.374-7.251h-9.45A.594.594 0 0 1 74 10a.594.594 0 0 1 .588-.6h9.45a.594.594 0 0 1 .588.6.594.594 0 0 1-.588.6Zm9.374-7.252H84.62a.594.594 0 0 1-.588-.6.594.594 0 0 1 .588-.6h8.792a.594.594 0 0 1 .588.6c0 .331-.263.6-.588.6ZM80.38 1.2c-.837 0-1.518.695-1.518 1.55a1.535 1.535 0 0 0 1.518 1.548 1.535 1.535 0 0 0 1.518-1.549c0-.854-.68-1.549-1.518-1.549Zm-.658 14.504a1.535 1.535 0 0 0-1.518 1.533.594.594 0 0 1 0 .015.594.594 0 0 1 0 .016 1.535 1.535 0 0 0 1.518 1.533c.837 0 1.518-.695 1.518-1.549a1.535 1.535 0 0 0-1.518-1.548Zm8.556-7.252a1.535 1.535 0 0 0-1.518 1.549c0 .854.681 1.548 1.518 1.548a1.535 1.535 0 0 0 1.518-1.532.594.594 0 0 1 0-.016.594.594 0 0 1 0-.016 1.535 1.535 0 0 0-1.518-1.533Z" fill="rgba(248, 107, 33, 1)" fill-rule="evenodd" data-name="Settings"/></svg>