<svg xmlns="http://www.w3.org/2000/svg" width="20.995" height="16.989" viewBox="68.168 3.036 20.995 16.989"><path d="M89.163 5.047a8.65 8.65 0 0 1-2.475.677 4.311 4.311 0 0 0 1.894-2.374 8.688 8.688 0 0 1-2.734 1.041 4.308 4.308 0 0 0-3.144-1.355c-2.38 0-4.308 1.92-4.308 4.29 0 .334.038.663.112.978a12.255 12.255 0 0 1-8.878-4.481 4.281 4.281 0 0 0 1.333 5.725 4.295 4.295 0 0 1-1.951-.538v.055a4.296 4.296 0 0 0 3.454 4.205 4.312 4.312 0 0 1-1.945.073 4.306 4.306 0 0 0 4.024 2.978 8.663 8.663 0 0 1-6.377 1.776 12.228 12.228 0 0 0 6.603 1.928c7.922 0 12.254-6.535 12.254-12.202 0-.186-.003-.372-.011-.556a8.735 8.735 0 0 0 2.149-2.22Z" fill="rgba(255, 255, 255, 1)" fill-rule="evenodd" data-name="Twitter Icon"/></svg>