<svg xmlns="http://www.w3.org/2000/svg" width="20" height="18.01" viewBox="0 73 20 18.01"><path d="M11.953 84.957h-.71a3.806 3.806 0 0 1-.487-.04v1.102a.61.61 0 0 1-.463.6c-2.864.666-5.55 1.719-5.89 2.297a.314.314 0 0 0-.02.042v.822h14.43v-.822a.69.69 0 0 0-.21-.245c-.689-.563-2.864-1.394-5.245-1.984a31.497 31.497 0 0 0-.454-.11.61.61 0 0 1-.464-.599.64.64 0 0 1 .015-.135.614.614 0 0 1 .235-.367.58.58 0 0 1 .343-.114.574.574 0 0 1 .13.015 40.421 40.421 0 0 1 .877.214c2.552.653 5.96 1.807 5.96 3.308a.994.994 0 0 1 0 .032v1.422a.623.623 0 0 1-.216.475.578.578 0 0 1-.377.14H3.79a.603.603 0 0 1-.593-.59.648.648 0 0 1 0-.025v-1.442a.97.97 0 0 1 0-.032c0-1.447 3.24-2.578 5.768-3.238a39.045 39.045 0 0 1 .605-.153v-.996a3.806 3.806 0 0 1-2.06-3.303 4.07 4.07 0 0 1-.003-.15v-4.206a3.924 3.924 0 0 1 1.414-3.033A3.636 3.636 0 0 1 11.244 73h.71a3.806 3.806 0 0 1 3.732 3.725 4.07 4.07 0 0 1 .003.15v4.207a3.925 3.925 0 0 1-1.396 3.018 3.636 3.636 0 0 1-2.34.857Zm-4.912-.396h-.568a3.08 3.08 0 0 1-.355-.028v.843a.523.523 0 0 1-.398.514 25.55 25.55 0 0 0-1.67.45c-1.59.485-2.855 1.05-3.03 1.39a.244.244 0 0 0-.003.007v2.692a.518.518 0 0 1-.508.528A.517.517 0 0 1 0 90.45a.556.556 0 0 1 0-.022v-2.706c-.037-1.122 2.208-2.003 4.452-2.602a32.008 32.008 0 0 1 .648-.165v-.747a3.08 3.08 0 0 1-1.649-2.663 3.294 3.294 0 0 1-.002-.121v-3.366a3.177 3.177 0 0 1 1.13-2.443 2.943 2.943 0 0 1 1.893-.694h.568a.517.517 0 0 1 .508.505.556.556 0 0 1 0 .023.534.534 0 0 1-.18.402.495.495 0 0 1-.328.125h-.568a2.044 2.044 0 0 0-2.005 2 2.187 2.187 0 0 0-.001.082v3.366c0 1.148.9 2.081 2.006 2.081h.568a.517.517 0 0 1 .508.506.555.555 0 0 1 0 .021.534.534 0 0 1-.18.403.496.496 0 0 1-.328.125Zm4.203-10.33a2.598 2.598 0 0 0-2.549 2.542 2.778 2.778 0 0 0-.002.102v4.207c0 1.458 1.144 2.645 2.55 2.645h.71a2.598 2.598 0 0 0 2.548-2.541 2.778 2.778 0 0 0 .002-.104v-4.207a2.68 2.68 0 0 0-.952-2.06 2.482 2.482 0 0 0-1.598-.585h-.71Z" fill="rgba(255, 255, 255, 1)" fill-rule="evenodd" data-name="Users"/></svg>