<svg xmlns="http://www.w3.org/2000/svg" width="9.895" height="12.996" viewBox="29 0 9.895 12.996"><path d="M38.594 12.996a.445.445 0 0 0 .218-.06.121.121 0 0 0 .003 0c.022-.014.039-.034.055-.054a.43.43 0 0 1 .025-.029V.116A.458.458 0 0 0 38.69 0h-9.436A.46.46 0 0 0 29 .159v12.648a2.592 2.592 0 0 0 .007.009.42.42 0 0 0 .123.12.445.445 0 0 0 .222.06.445.445 0 0 0 .231-.064l4.388-2.658 4.388 2.658a.444.444 0 0 0 .235.064ZM38.14.893h-8.338v10.842l3.938-2.386a.445.445 0 0 1 .231-.064.445.445 0 0 1 .23.064l3.939 2.386V.893Z" fill="rgba(125, 125, 125, 1)" fill-rule="evenodd" data-name="Bookmarks"/></svg>