<svg xmlns="http://www.w3.org/2000/svg" width="20.004" height="22" viewBox="83 0 20.004 22"><path d="M98.86 22H87.144C84.86 22 83 20.125 83 17.82V6.01a4.167 4.167 0 0 1 4.145-4.18.699.699 0 0 1 .696.702.699.699 0 0 1-.696.702 2.768 2.768 0 0 0-2.753 2.776v.742h17.22v-.742a2.768 2.768 0 0 0-2.753-2.776.699.699 0 0 1-.696-.702.699.699 0 0 1 .696-.702c2.286 0 4.145 1.875 4.145 4.18V17.82A4.167 4.167 0 0 1 98.86 22ZM84.391 8.154v9.666a2.768 2.768 0 0 0 2.753 2.777H98.86a2.768 2.768 0 0 0 2.754-2.777V8.154H84.392Zm13.94 5.271h-10.66a.699.699 0 0 1-.695-.701.699.699 0 0 1 .696-.702h10.659a.699.699 0 0 1 .695.702.699.699 0 0 1-.695.701Zm-2.994 3.281h-4.541a.699.699 0 0 1-.696-.701.699.699 0 0 1 .696-.702h4.54a.699.699 0 0 1 .697.702.699.699 0 0 1-.696.701Zm-.182-13.473h-4.35a.699.699 0 0 1-.695-.702.699.699 0 0 1 .696-.702h4.349a.699.699 0 0 1 .696.702.699.699 0 0 1-.696.702Zm-6.898 1.522a.699.699 0 0 0 .695.701.699.699 0 0 0 .696-.701V.702A.699.699 0 0 0 88.953 0a.699.699 0 0 0-.695.702v4.053Zm8.097 0a.699.699 0 0 0 .696.701.699.699 0 0 0 .696-.701V.702A.699.699 0 0 0 97.05 0a.699.699 0 0 0-.696.702v4.053Z" fill="rgba(248, 107, 33, 1)" fill-rule="evenodd" data-name="Calendar"/></svg>