<svg xmlns="http://www.w3.org/2000/svg" width="20" height="17.001" viewBox="99 0 20 17.001"><path d="M103.626 12.254A5.385 5.385 0 0 0 109 17a5.385 5.385 0 0 0 5.374-4.747h4.038c.324 0 .588-.26.588-.58V9.855A9.94 9.94 0 0 0 109 0c-5.514 0-10 4.421-10 9.855v1.819a.584.584 0 0 0 .588.58h4.038Zm-3.45-1.16h4.007c.324 0 .588.26.588.58A4.203 4.203 0 0 0 109 15.842a4.203 4.203 0 0 0 4.23-4.168c0-.32.263-.58.587-.58h4.006V9.855A8.77 8.77 0 0 0 109 1.16a8.77 8.77 0 0 0-8.824 8.695v1.24Zm6.658.581A2.153 2.153 0 0 0 109 13.81a.467.467 0 0 0 .47-.464.467.467 0 0 0-.47-.464 1.217 1.217 0 0 1-1.225-1.207A1.217 1.217 0 0 1 109 10.467c.676 0 1.225.541 1.225 1.207a1.223 1.223 0 0 1-.01.157.463.463 0 0 0-.004.06.466.466 0 0 0 .41.46.502.502 0 0 0 .061.003.468.468 0 0 0 .466-.405 2.154 2.154 0 0 0 .018-.275c0-1.177-.972-2.135-2.166-2.135a2.153 2.153 0 0 0-2.166 2.134.467.467 0 0 0 0 .001.467.467 0 0 0 0 .001Zm5.091-2.97a.594.594 0 0 0 .022.02c.111.097.25.145.39.145a.6.6 0 0 0 .092-.007.59.59 0 0 0 .328-.167l.839-.845a.59.59 0 0 0 .036-.04.574.574 0 0 0 .114-.506.576.576 0 0 0-.16-.274.596.596 0 0 0-.021-.02.595.595 0 0 0-.81.029l-.839.845a.59.59 0 0 0-.037.04.574.574 0 0 0 .046.78Zm-6.711.007a.591.591 0 0 0 .403.158.6.6 0 0 0 .088-.006.587.587 0 0 0 .323-.16.59.59 0 0 0 .038-.039.574.574 0 0 0-.028-.78l-.839-.845a.595.595 0 0 0-.018-.017.594.594 0 0 0-.814.008.59.59 0 0 0-.038.04.574.574 0 0 0-.123.508.575.575 0 0 0 .152.272l.839.845a.594.594 0 0 0 .017.016Zm3.763-1.635a.584.584 0 0 1-.588-.58V5.316c0-.32.263-.58.588-.58.325 0 .588.26.588.58v1.181c0 .32-.263.58-.588.58Z" fill="rgba(248, 102, 35, 1)" fill-rule="evenodd" data-name="Dashboard"/></svg>