<svg xmlns="http://www.w3.org/2000/svg" width="28.987" height="22.025" viewBox="0 3 28.987 22.025"><path d="M19.325 4.573A1.592 1.592 0 0 0 17.715 3L.692 12.826A1.373 1.373 0 0 0 0 14.012c0 .488.264.94.693 1.187l17.021 9.826a1.592 1.592 0 0 0 1.61-1.574v-3.074l8.053 4.648a1.592 1.592 0 0 0 1.61-1.574V4.573A1.592 1.592 0 0 0 27.377 3l-8.052 4.648V4.573Zm-3.221 3.011L4.968 14.012l11.136 6.429V7.584Zm3.22 3.719v5.42l6.443 3.718V7.584l-6.442 3.719Z" fill="rgba(255, 255, 255, 1)" fill-rule="evenodd" data-name="Fast Forward copy"/></svg>