<svg xmlns="http://www.w3.org/2000/svg" width="27.3" height="36.4" viewBox="181 1 27.3 36.4"><path d="M203.75 1h-18.2A4.55 4.55 0 0 0 181 5.55v27.3a4.55 4.55 0 0 0 4.55 4.55h18.2a4.55 4.55 0 0 0 4.55-4.55V5.55A4.55 4.55 0 0 0 203.75 1Zm-20.475 9.1h22.75v17.062h-22.75V10.1Zm20.475 25.025h-18.2a2.278 2.278 0 0 1-2.275-2.275V28.3h22.75v4.55a2.278 2.278 0 0 1-2.275 2.275Zm-18.2-31.85h18.2a2.28 2.28 0 0 1 2.275 2.274v3.413h-22.75V5.549a2.28 2.28 0 0 1 2.275-2.274Zm10.806 3.412h-3.412a.568.568 0 0 1-.569-.568.569.569 0 0 1 .569-.57h3.412a.569.569 0 0 1 .569.57.568.568 0 0 1-.569.568Z" fill="rgba(255, 255, 255, 1)" fill-rule="evenodd" data-name="Icon Smartphone"/></svg>