<svg xmlns="http://www.w3.org/2000/svg" width="19.99" height="16.999" viewBox="2 219.001 19.99 16.999"><path d="M11.996 236a.58.58 0 0 1-.402-.163l-1.962-1.875a.607.607 0 0 1-.026-.847.58.58 0 0 1 .83-.027l1.562 1.492 7.625-7.22c1.593-1.624 1.593-4.29-.015-5.93a4.058 4.058 0 0 0-2.917-1.23 4.06 4.06 0 0 0-2.916 1.23 4.24 4.24 0 0 0-1.19 2.58.605.605 0 0 1-.173.418.576.576 0 0 1-.464.174.597.597 0 0 1-.54-.593 4.241 4.241 0 0 0-1.191-2.579 4.059 4.059 0 0 0-2.916-1.23 4.06 4.06 0 0 0-2.917 1.23 4.218 4.218 0 0 0-1.208 2.973c0 1.123.43 2.179 1.208 2.973l4.092 3.873a.607.607 0 0 1 .03.847.58.58 0 0 1-.83.032l-4.108-3.89A5.431 5.431 0 0 1 2 224.404c0-1.443.551-2.8 1.553-3.82A5.217 5.217 0 0 1 7.3 219c1.415 0 2.746.562 3.747 1.582.382.39.7.833.948 1.314.247-.481.566-.925.947-1.314A5.216 5.216 0 0 1 16.691 219c1.417 0 2.747.562 3.749 1.582 2.066 2.106 2.066 5.534 0 7.64l-8.044 7.616a.58.58 0 0 1-.4.16Z" fill="rgba(255, 255, 255, 1)" fill-rule="evenodd" data-name="Like"/></svg>