<svg xmlns="http://www.w3.org/2000/svg" width="16.8" height="14.017" viewBox="1.611 2.492 16.8 14.017"><path d="M10.012 16.508a.492.492 0 0 1-.338-.133l-1.648-1.546a.494.494 0 0 1 .676-.721l1.312 1.23 6.409-5.953c1.338-1.34 1.338-3.538-.013-4.89a3.443 3.443 0 0 0-2.452-1.015 3.468 3.468 0 0 0-3.451 3.142.494.494 0 0 1-.535.488.496.496 0 0 1-.455-.488 3.469 3.469 0 0 0-3.45-3.142c-.927 0-1.797.36-2.452 1.015A3.444 3.444 0 0 0 2.6 6.946c0 .926.36 1.797 1.015 2.451l3.439 3.195a.494.494 0 1 1-.673.724L2.93 10.109a4.435 4.435 0 0 1-1.318-3.163c0-1.19.464-2.308 1.305-3.15a4.425 4.425 0 0 1 3.15-1.304c1.19 0 2.309.463 3.15 1.304.32.322.589.687.796 1.084a4.459 4.459 0 0 1 3.946-2.388c1.19 0 2.31.463 3.15 1.304a4.46 4.46 0 0 1 0 6.3l-6.76 6.28a.493.493 0 0 1-.336.132Z" fill="rgba(143, 143, 143, 1)" fill-rule="evenodd" data-name="Like"/></svg>