<svg xmlns="http://www.w3.org/2000/svg" width="15.992" height="20.987" viewBox="3 287 15.992 20.987"><path d="M9.88 307.601a1.816 1.816 0 0 0 1.123.386 1.83 1.83 0 0 0 .928-.253.578.578 0 0 0 .055-.037l.247-.187a18.088 18.088 0 0 0 6.56-10.4.61.61 0 0 0 .012-.083 8.48 8.48 0 0 0 .187-1.78 8.637 8.637 0 0 0-.001-.106A8.13 8.13 0 0 0 10.995 287C6.587 287 3 290.7 3 295.248c0 .566.056 1.13.165 1.68a.625.625 0 0 0 .013.086 18.05 18.05 0 0 0 6.701 10.587Zm-5.517-10.778a16.816 16.816 0 0 0 6.231 9.788.667.667 0 0 0 .41.141.656.656 0 0 0 .309-.076l.206-.157a16.842 16.842 0 0 0 6.089-9.603.62.62 0 0 1 .013-.084 7.19 7.19 0 0 0 .174-1.584 7.08 7.08 0 0 0-2.767-5.643 6.628 6.628 0 0 0-4.033-1.37 6.913 6.913 0 0 0-6.798 6.922 7.344 7.344 0 0 0 0 .09 7.312 7.312 0 0 0 .155 1.501.683.683 0 0 1 .006.038.584.584 0 0 1 .005.037Zm3.211-1.53a3.48 3.48 0 0 0 3.421 3.484 3.336 3.336 0 0 0 2.022-.683 3.563 3.563 0 0 0 1.4-2.846 3.696 3.696 0 0 0 0-.046 3.48 3.48 0 0 0-3.422-3.484 3.336 3.336 0 0 0-2.046.702 3.565 3.565 0 0 0-1.375 2.828 3.698 3.698 0 0 0 0 .045Zm3.421-2.34a2.263 2.263 0 0 0-2.224 2.265 2.403 2.403 0 0 0 0 .03 2.317 2.317 0 0 0 .905 1.846 2.169 2.169 0 0 0 1.32.448 2.263 2.263 0 0 0 2.225-2.28 2.405 2.405 0 0 0 0-.014 2.318 2.318 0 0 0-.905-1.848 2.17 2.17 0 0 0-1.32-.448Z" fill="rgba(255, 255, 255, 1)" fill-rule="evenodd" data-name="Location"/></svg>