<svg xmlns="http://www.w3.org/2000/svg" width="14.992" height="13.007" viewBox="230 242 14.992 13.007"><path d="M242.606 255.007a.429.429 0 0 1-.312-.135.473.473 0 0 1-.13-.328.474.474 0 0 1 .13-.327l.817-.857.376-.395h-3.909a.435.435 0 0 1-.365-.204l-5.006-7.78h-3.766a.45.45 0 0 1-.439-.415.49.49 0 0 1-.002-.048c0-.255.197-.463.441-.463h4a.436.436 0 0 1 .366.204l5.005 7.78h3.675l-.376-.394-.817-.858a.48.48 0 0 1 0-.654.436.436 0 0 1 .176-.114.424.424 0 0 1 .4.07.452.452 0 0 1 .048.044l1.945 2.042a.473.473 0 0 1 .13.327.474.474 0 0 1-.13.328l-1.945 2.042a.435.435 0 0 1-.176.113.423.423 0 0 1-.136.022Zm0-7.997a.43.43 0 0 1-.312-.135.48.48 0 0 1 0-.655l.817-.857.376-.395h-3.675l-1.182 1.838a.445.445 0 0 1-.18.16.426.426 0 0 1-.186.044.424.424 0 0 1-.017 0 .422.422 0 0 1-.196-.057.441.441 0 0 1-.034-.022.469.469 0 0 1-.194-.384c0-.088.024-.177.074-.255a.478.478 0 0 1 .002-.004l1.314-2.042a.436.436 0 0 1 .365-.204h3.909l-.376-.394-.817-.858a.473.473 0 0 1-.13-.327.473.473 0 0 1 .13-.327.436.436 0 0 1 .176-.114.424.424 0 0 1 .4.07.452.452 0 0 1 .048.044l1.945 2.042a.474.474 0 0 1 .13.327.474.474 0 0 1-.13.328l-1.945 2.042a.435.435 0 0 1-.179.114.424.424 0 0 1-.133.021Zm-8.164 5.942h-4.001a.45.45 0 0 1-.439-.414.49.49 0 0 1-.002-.049c0-.255.197-.463.441-.463h3.766l1.295-2.012a.446.446 0 0 1 .18-.16.422.422 0 0 1 .398.014.442.442 0 0 1 .034.022c.2.142.254.427.12.639a.478.478 0 0 1-.001.003l-1.426 2.216a.436.436 0 0 1-.365.204Z" fill="rgba(255, 255, 255, 1)" fill-rule="evenodd" data-name="Random"/></svg>