<svg xmlns="http://www.w3.org/2000/svg" width="13.996" height="15" viewBox="257 240 13.996 15"><path d="M268.52 252.946h-9.911l1.389 1.3a.436.436 0 0 1 .112.17.419.419 0 0 1-.062.4.453.453 0 0 1-.05.055.486.486 0 0 1-.33.129.51.51 0 0 1-.004 0 .512.512 0 0 1-.002 0 .486.486 0 0 1-.33-.13l-2.194-2.053a.428.428 0 0 1-.075-.092.427.427 0 0 1-.063-.22.429.429 0 0 1 .122-.296.45.45 0 0 1 .036-.035l2.173-2.035a.487.487 0 0 1 .333-.129.487.487 0 0 1 .334.13.421.421 0 0 1 .05.568.452.452 0 0 1-.05.056l-1.39 1.3h9.912a1.583 1.583 0 0 0 1.082-.42 1.387 1.387 0 0 0 .451-1.016v-2.711a.45.45 0 0 1 .377-.433.504.504 0 0 1 .095-.008.487.487 0 0 1 .329.125.427.427 0 0 1 .142.316v2.711c0 1.279-1.11 2.318-2.476 2.318Zm-.192-7.956a.51.51 0 0 0 .004 0 .51.51 0 0 0 .003 0 .487.487 0 0 0 .33-.13l1.096-1.026 1.075-1.006a.45.45 0 0 0 .041-.04.428.428 0 0 0 .119-.293.427.427 0 0 0-.054-.205.428.428 0 0 0-.084-.107l-2.193-2.054a.494.494 0 0 0-.667 0 .422.422 0 0 0-.112.456.436.436 0 0 0 .112.168l1.39 1.3H259.5c-1.365 0-2.475 1.04-2.475 2.319v2.659a.427.427 0 0 0 .142.316.486.486 0 0 0 .329.125.504.504 0 0 0 .095-.009.45.45 0 0 0 .376-.432v-2.66a1.387 1.387 0 0 1 .45-1.015 1.582 1.582 0 0 1 1.083-.42h9.887l-.459.43-.93.87a.422.422 0 0 0 0 .625.487.487 0 0 0 .33.129Z" fill="rgba(255, 255, 255, 1)" fill-rule="evenodd" data-name="repetition"/></svg>