<svg xmlns="http://www.w3.org/2000/svg" width="17.552" height="17.206" viewBox="251 0 17.552 17.206"><path d="M254.292 2.881h-2.776a.516.516 0 0 1-.516-.516.516.516 0 0 1 .516-.516h2.776A2.367 2.367 0 0 1 256.6 0a2.367 2.367 0 0 1 2.365 2.365 2.367 2.367 0 0 1-2.365 2.364 2.367 2.367 0 0 1-2.307-1.848Zm9.239 8.086a2.367 2.367 0 0 1-2.365-2.364 2.367 2.367 0 0 1 2.365-2.364 2.367 2.367 0 0 1 2.307 1.848h2.198a.516.516 0 0 1 .516.516.516.516 0 0 1-.516.516h-2.198a2.367 2.367 0 0 1-2.307 1.848Zm-9.816 4.39a2.367 2.367 0 0 0 2.307 1.849 2.367 2.367 0 0 0 2.364-2.365 2.367 2.367 0 0 0-2.364-2.364 2.367 2.367 0 0 0-2.307 1.848h-2.199a.516.516 0 0 0-.516.516.516.516 0 0 0 .516.516h2.199Zm6.095-6.238h-8.294a.516.516 0 0 1-.516-.516.516.516 0 0 1 .516-.516h8.294a.516.516 0 0 1 .516.516.516.516 0 0 1-.516.516Zm8.226 6.238h-8.293a.516.516 0 0 1-.517-.516c0-.285.231-.516.517-.516h8.293a.516.516 0 0 1 .516.516.516.516 0 0 1-.516.516Zm0-12.476h-7.716a.516.516 0 0 1-.516-.516.516.516 0 0 1 .516-.516h7.716a.516.516 0 0 1 .516.516.516.516 0 0 1-.516.516Zm-11.437-1.848c-.734 0-1.332.597-1.332 1.332 0 .734.598 1.332 1.332 1.332.735 0 1.332-.598 1.332-1.332 0-.735-.597-1.332-1.332-1.332Zm-.577 12.476a1.334 1.334 0 0 0-1.332 1.332c0 .735.597 1.332 1.332 1.332a1.334 1.334 0 0 0 1.332-1.332 1.334 1.334 0 0 0-1.332-1.332Zm7.509-6.238a1.334 1.334 0 0 0-1.333 1.332 1.334 1.334 0 0 0 1.333 1.332 1.333 1.333 0 0 0 1.332-1.332 1.333 1.333 0 0 0-1.332-1.332Z" fill="rgba(255, 255, 255, 1)" fill-rule="evenodd" data-name="Settings"/></svg>