<svg xmlns="http://www.w3.org/2000/svg" width="17.581" height="12.749"><path d="M2.834 12.749c-.757 0-1.47-.3-2.005-.842a2.907 2.907 0 0 1-.076-3.985 2.893 2.893 0 0 1 .076-.08A2.798 2.798 0 0 1 2.834 7a2.798 2.798 0 0 1 1.543.462l2.112-2.903a2.877 2.877 0 0 1-.537-1.685 2.874 2.874 0 0 1 .83-2.032A2.798 2.798 0 0 1 8.787 0a2.797 2.797 0 0 1 2.004.842c.536.543.83 1.265.83 2.032a2.876 2.876 0 0 1-.536 1.684l1.098 1.505 1.02 1.399A2.798 2.798 0 0 1 14.748 7a2.798 2.798 0 0 1 2.005.842 2.906 2.906 0 0 1 0 4.065 2.798 2.798 0 0 1-2.005.842c-.757 0-1.469-.3-2.005-.842a2.886 2.886 0 0 1-.828-2.032 2.888 2.888 0 0 1 .535-1.683L10.33 5.287a2.797 2.797 0 0 1-1.543.462 2.797 2.797 0 0 1-1.543-.461L6.226 6.686 5.131 8.19a2.875 2.875 0 0 1 .514 1.322 2.896 2.896 0 0 1-.807 2.394 2.798 2.798 0 0 1-2.004.842Zm5.953-11.7c-.481 0-.934.19-1.274.535a1.826 1.826 0 0 0-.527 1.29 1.826 1.826 0 0 0 .527 1.291c.34.345.793.535 1.274.535.48 0 .933-.19 1.273-.535a1.827 1.827 0 0 0 .527-1.29 1.826 1.826 0 0 0-.527-1.291 1.776 1.776 0 0 0-1.273-.535Zm5.96 7a1.776 1.776 0 0 0-1.273.535 1.846 1.846 0 0 0 0 2.581 1.776 1.776 0 0 0 1.273.535c.481 0 .934-.19 1.273-.535a1.827 1.827 0 0 0 .513-1.06 1.84 1.84 0 0 0-.464-1.47 1.837 1.837 0 0 0-.049-.051 1.776 1.776 0 0 0-1.273-.535Zm-11.913 0c-.481 0-.934.19-1.274.535a1.827 1.827 0 0 0-.512 1.061 1.84 1.84 0 0 0 .464 1.47 1.837 1.837 0 0 0 .048.05c.34.345.793.535 1.274.535a1.776 1.776 0 0 0 1.273-.535 1.846 1.846 0 0 0 0-2.581 1.776 1.776 0 0 0-1.273-.535Z" fill="rgba(125, 125, 125, 1)" fill-rule="evenodd" data-name="Social"/></svg>