<svg xmlns="http://www.w3.org/2000/svg" width="23" height="14.006" viewBox="0 1 23 14.006"><path d="M10.919 15.006H6.65A6.79 6.79 0 0 1 .054 8.894 7.407 7.407 0 0 1 0 8.003 7.158 7.158 0 0 1 2.152 2.85 6.447 6.447 0 0 1 6.652 1c.373 0 .676.319.676.712 0 .394-.303.713-.677.713a5.409 5.409 0 0 0-5.255 4.868 5.9 5.9 0 0 0-.043.71c0 3.076 2.377 5.578 5.298 5.578h3.591V2.425H8.87c-.373 0-.676-.32-.676-.713a.729.729 0 0 1 .21-.515A.657.657 0 0 1 8.87 1h2.049c.373 0 .676.319.676.712v2.73a3.29 3.29 0 0 1 2.33 2.12 4 4 0 0 1 .266 1.44 3.9 3.9 0 0 1-.76 2.34 3.145 3.145 0 0 1-1.836 1.23v2.721a.728.728 0 0 1-.21.516.657.657 0 0 1-.466.197Zm8.935-2.003a.657.657 0 0 0 .457.187c.055 0 .11-.007.164-.022a.66.66 0 0 0 .252-.13 5.803 5.803 0 0 0 .739-.731A6.703 6.703 0 0 0 23 8.003a6.921 6.921 0 0 0-.055-.872 6.455 6.455 0 0 0-2.218-4.163.655.655 0 0 0-.95.12.732.732 0 0 0-.144.42.727.727 0 0 0 .259.58 4.502 4.502 0 0 1 .738.778 5.263 5.263 0 0 1 1.017 3.137 5.446 5.446 0 0 1-.08.927 4.964 4.964 0 0 1-1.674 2.987.727.727 0 0 0-.26.581.733.733 0 0 0 .145.419.704.704 0 0 0 .076.086ZM17.04 11.49c-.201 0-.4-.093-.533-.273a.734.734 0 0 1-.144-.439.725.725 0 0 1 .259-.56 2.793 2.793 0 0 0 .933-1.63 3.096 3.096 0 0 0 .056-.584 2.987 2.987 0 0 0-.551-1.744 2.54 2.54 0 0 0-.439-.47.738.738 0 0 1-.115-1 .678.678 0 0 1 .276-.22.647.647 0 0 1 .611.053.684.684 0 0 1 .063.046c.944.78 1.508 2.026 1.508 3.335 0 1.309-.564 2.555-1.508 3.335a.653.653 0 0 1-.394.15.645.645 0 0 1-.022.001Zm-5.445-5.873v4.77a2.169 2.169 0 0 0 1.243-1.173 2.793 2.793 0 0 0 .27-1.21 2.746 2.746 0 0 0-.459-1.54 2.103 2.103 0 0 0-1.054-.847Z" fill="rgba(255, 255, 255, 1)" fill-rule="evenodd" data-name="Sound on"/></svg>