<svg xmlns="http://www.w3.org/2000/svg" width="13.994" height="15.026"><path d="M7.293 9.969h-.592c-.119 0-.233-.017-.348-.034a11.663 11.663 0 0 0-.068-.01v.941a.5.5 0 0 1-.379.492 26.723 26.723 0 0 0-1.757.473c-1.655.508-2.965 1.095-3.164 1.457a.24.24 0 0 0-.018.04l.002.69h12.055v-.701c-.147-.44-2.235-1.292-4.562-1.869a26.285 26.285 0 0 0-.374-.09.5.5 0 0 1-.38-.491.525.525 0 0 1 .013-.11.486.486 0 0 1 .579-.382 33.738 33.738 0 0 1 .73.178c2.126.545 4.964 1.506 4.964 2.754a.824.824 0 0 1 0 .027v1.188a.51.51 0 0 1-.172.385.472.472 0 0 1-.313.119H.485a.493.493 0 0 1-.484-.478.532.532 0 0 1 0-.026v-1.205c-.04-1.216 2.687-2.169 4.81-2.724a32.598 32.598 0 0 1 .505-.127v-.852a3.226 3.226 0 0 1-1.688-2.406 3.326 3.326 0 0 1-.033-.467V3.227A3.272 3.272 0 0 1 4.741.726 3.021 3.021 0 0 1 6.701 0h.592a3.165 3.165 0 0 1 3.102 3.061 3.392 3.392 0 0 1 .004.166v3.514a3.272 3.272 0 0 1-1.146 2.502 3.02 3.02 0 0 1-1.96.726ZM9.43 3.227a2.25 2.25 0 0 0-.788-1.72 2.078 2.078 0 0 0-1.348-.5h-.592c-1.178 0-2.136.996-2.136 2.22v3.514a2.25 2.25 0 0 0 .788 1.721 2.078 2.078 0 0 0 1.348.5h.592c1.178 0 2.136-.997 2.136-2.22V3.226Z" fill="rgba(148, 148, 148, 1)" fill-rule="evenodd" data-name="User"/></svg>